<svg width="2560" height="1440" viewBox="0 0 2560 1440" fill="none" xmlns="http://www.w3.org/2000/svg">
<rect width="2560" height="1440" fill="#1B62A5"/>
<path d="M567 560.65L527.211 600.44H327V855.44H580V744.326L620 704.326V895.44H287V560.44H567V560.65Z" fill="white"/>
<path d="M469.916 745.93L454.389 761.457L433.899 740.968L424 750.867L454.405 781.272L464.305 771.373L464.288 771.356L479.815 755.829L496.316 772.331L453.891 814.757L357 717.867L374 700.867L404.405 731.272L414.305 721.373L383.899 690.968L399.427 675.44L469.916 745.93Z" fill="white"/>
<path fill-rule="evenodd" clip-rule="evenodd" d="M654.868 560.978L621.703 594.143L631.603 604.042L664.768 570.877L681.316 587.427L496.36 772.383L479.812 755.834L489.305 746.34L479.405 736.44L469.912 745.935L453.934 729.956L638.891 545L654.868 560.978ZM502.627 712.219L512.526 722.118L551.418 683.228L541.519 673.328L502.627 712.219ZM562.627 652.219L572.526 662.118L611.418 623.228L601.519 613.328L562.627 652.219Z" fill="white"/>
<path d="M734.59 717.04C734.59 701.093 738.04 686.91 744.94 674.49C751.84 661.917 761.423 652.18 773.69 645.28C786.11 638.227 800.14 634.7 815.78 634.7C834.947 634.7 851.353 639.76 865 649.88C878.647 660 887.77 673.8 892.37 691.28H849.13C845.91 684.533 841.31 679.397 835.33 675.87C829.503 672.343 822.833 670.58 815.32 670.58C803.207 670.58 793.393 674.797 785.88 683.23C778.367 691.663 774.61 702.933 774.61 717.04C774.61 731.147 778.367 742.417 785.88 750.85C793.393 759.283 803.207 763.5 815.32 763.5C822.833 763.5 829.503 761.737 835.33 758.21C841.31 754.683 845.91 749.547 849.13 742.8H892.37C887.77 760.28 878.647 774.08 865 784.2C851.353 794.167 834.947 799.15 815.78 799.15C800.14 799.15 786.11 795.7 773.69 788.8C761.423 781.747 751.84 772.01 744.94 759.59C738.04 747.17 734.59 732.987 734.59 717.04Z" fill="white"/>
<path d="M974.875 799.84C962.302 799.84 950.955 797.157 940.835 791.79C930.869 786.423 922.972 778.757 917.145 768.79C911.472 758.823 908.635 747.17 908.635 733.83C908.635 720.643 911.549 709.067 917.375 699.1C923.202 688.98 931.175 681.237 941.295 675.87C951.415 670.503 962.762 667.82 975.335 667.82C987.909 667.82 999.255 670.503 1009.38 675.87C1019.5 681.237 1027.47 688.98 1033.3 699.1C1039.12 709.067 1042.04 720.643 1042.04 733.83C1042.04 747.017 1039.05 758.67 1033.07 768.79C1027.24 778.757 1019.19 786.423 1008.92 791.79C998.795 797.157 987.449 799.84 974.875 799.84ZM974.875 765.8C982.389 765.8 988.752 763.04 993.965 757.52C999.332 752 1002.02 744.103 1002.02 733.83C1002.02 723.557 999.409 715.66 994.195 710.14C989.135 704.62 982.849 701.86 975.335 701.86C967.669 701.86 961.305 704.62 956.245 710.14C951.185 715.507 948.655 723.403 948.655 733.83C948.655 744.103 951.109 752 956.015 757.52C961.075 763.04 967.362 765.8 974.875 765.8Z" fill="white"/>
<path d="M1141.1 668.28C1156.13 668.28 1168.09 673.187 1176.98 683C1186.03 692.66 1190.55 706 1190.55 723.02V798H1151.45V728.31C1151.45 719.723 1149.23 713.053 1144.78 708.3C1140.33 703.547 1134.35 701.17 1126.84 701.17C1119.33 701.17 1113.35 703.547 1108.9 708.3C1104.45 713.053 1102.23 719.723 1102.23 728.31V798H1062.9V669.66H1102.23V686.68C1106.22 681.007 1111.58 676.56 1118.33 673.34C1125.08 669.967 1132.67 668.28 1141.1 668.28Z" fill="white"/>
<path d="M1289.41 764.65V798H1269.4C1255.14 798 1244.02 794.55 1236.05 787.65C1228.08 780.597 1224.09 769.173 1224.09 753.38V702.32H1208.45V669.66H1224.09V638.38H1263.42V669.66H1289.18V702.32H1263.42V753.84C1263.42 757.673 1264.34 760.433 1266.18 762.12C1268.02 763.807 1271.09 764.65 1275.38 764.65H1289.41Z" fill="white"/>
<path d="M1350.65 691.05C1355.25 683.997 1361 678.477 1367.9 674.49C1374.8 670.35 1382.47 668.28 1390.9 668.28V709.91H1380.09C1370.28 709.91 1362.92 712.057 1358.01 716.35C1353.1 720.49 1350.65 727.85 1350.65 738.43V798H1311.32V669.66H1350.65V691.05Z" fill="white"/>
<path d="M1468.12 799.84C1455.54 799.84 1444.2 797.157 1434.08 791.79C1424.11 786.423 1416.21 778.757 1410.39 768.79C1404.71 758.823 1401.88 747.17 1401.88 733.83C1401.88 720.643 1404.79 709.067 1410.62 699.1C1416.44 688.98 1424.42 681.237 1434.54 675.87C1444.66 670.503 1456 667.82 1468.58 667.82C1481.15 667.82 1492.5 670.503 1502.62 675.87C1512.74 681.237 1520.71 688.98 1526.54 699.1C1532.36 709.067 1535.28 720.643 1535.28 733.83C1535.28 747.017 1532.29 758.67 1526.31 768.79C1520.48 778.757 1512.43 786.423 1502.16 791.79C1492.04 797.157 1480.69 799.84 1468.12 799.84ZM1468.12 765.8C1475.63 765.8 1481.99 763.04 1487.21 757.52C1492.57 752 1495.26 744.103 1495.26 733.83C1495.26 723.557 1492.65 715.66 1487.44 710.14C1482.38 704.62 1476.09 701.86 1468.58 701.86C1460.91 701.86 1454.55 704.62 1449.49 710.14C1444.43 715.507 1441.9 723.403 1441.9 733.83C1441.9 744.103 1444.35 752 1449.26 757.52C1454.32 763.04 1460.6 765.8 1468.12 765.8Z" fill="white"/>
<path d="M1595.47 627.8V798H1556.14V627.8H1595.47Z" fill="white"/>
<path d="M1744.95 731.76C1744.95 735.44 1744.72 739.273 1744.26 743.26H1655.25C1655.87 751.233 1658.4 757.367 1662.84 761.66C1667.44 765.8 1673.04 767.87 1679.63 767.87C1689.45 767.87 1696.27 763.73 1700.1 755.45H1741.96C1739.82 763.883 1735.91 771.473 1730.23 778.22C1724.71 784.967 1717.74 790.257 1709.3 794.09C1700.87 797.923 1691.44 799.84 1681.01 799.84C1668.44 799.84 1657.25 797.157 1647.43 791.79C1637.62 786.423 1629.95 778.757 1624.43 768.79C1618.91 758.823 1616.15 747.17 1616.15 733.83C1616.15 720.49 1618.84 708.837 1624.2 698.87C1629.72 688.903 1637.39 681.237 1647.2 675.87C1657.02 670.503 1668.29 667.82 1681.01 667.82C1693.43 667.82 1704.47 670.427 1714.13 675.64C1723.79 680.853 1731.31 688.29 1736.67 697.95C1742.19 707.61 1744.95 718.88 1744.95 731.76ZM1704.7 721.41C1704.7 714.663 1702.4 709.297 1697.8 705.31C1693.2 701.323 1687.45 699.33 1680.55 699.33C1673.96 699.33 1668.36 701.247 1663.76 705.08C1659.32 708.913 1656.56 714.357 1655.48 721.41H1704.7Z" fill="white"/>
<path d="M1810.07 717.73C1810.07 702.09 1813.6 688.06 1820.65 675.64C1827.71 663.067 1837.29 653.253 1849.4 646.2C1861.67 639.147 1875.24 635.62 1890.11 635.62C1907.59 635.62 1922.85 639.837 1935.88 648.27C1948.92 656.703 1958.42 668.663 1964.4 684.15H1939.33C1934.89 674.49 1928.45 667.053 1920.01 661.84C1911.73 656.627 1901.77 654.02 1890.11 654.02C1878.92 654.02 1868.88 656.627 1859.98 661.84C1851.09 667.053 1844.11 674.49 1839.05 684.15C1833.99 693.657 1831.46 704.85 1831.46 717.73C1831.46 730.457 1833.99 741.65 1839.05 751.31C1844.11 760.817 1851.09 768.177 1859.98 773.39C1868.88 778.603 1878.92 781.21 1890.11 781.21C1901.77 781.21 1911.73 778.68 1920.01 773.62C1928.45 768.407 1934.89 760.97 1939.33 751.31H1964.4C1958.42 766.643 1948.92 778.527 1935.88 786.96C1922.85 795.24 1907.59 799.38 1890.11 799.38C1875.24 799.38 1861.67 795.93 1849.4 789.03C1837.29 781.977 1827.71 772.24 1820.65 759.82C1813.6 747.4 1810.07 733.37 1810.07 717.73Z" fill="white"/>
<path d="M2086.18 637.69V654.71H2016.49V708.76H2073.07V725.78H2016.49V798H1995.56V637.69H2086.18Z" fill="white"/>
<path d="M2103.64 717.73C2103.64 702.09 2107.16 688.06 2114.22 675.64C2121.27 663.067 2130.85 653.253 2142.97 646.2C2155.23 639.147 2168.8 635.62 2183.68 635.62C2201.16 635.62 2216.41 639.837 2229.45 648.27C2242.48 656.703 2251.99 668.663 2257.97 684.15H2232.9C2228.45 674.49 2222.01 667.053 2213.58 661.84C2205.3 656.627 2195.33 654.02 2183.68 654.02C2172.48 654.02 2162.44 656.627 2153.55 661.84C2144.65 667.053 2137.68 674.49 2132.62 684.15C2127.56 693.657 2125.03 704.85 2125.03 717.73C2125.03 730.457 2127.56 741.65 2132.62 751.31C2137.68 760.817 2144.65 768.177 2153.55 773.39C2162.44 778.603 2172.48 781.21 2183.68 781.21C2195.33 781.21 2205.3 778.68 2213.58 773.62C2222.01 768.407 2228.45 760.97 2232.9 751.31H2257.97C2251.99 766.643 2242.48 778.527 2229.45 786.96C2216.41 795.24 2201.16 799.38 2183.68 799.38C2168.8 799.38 2155.23 795.93 2142.97 789.03C2130.85 781.977 2121.27 772.24 2114.22 759.82C2107.16 747.4 2103.64 733.37 2103.64 717.73Z" fill="white"/>
</svg>
