<svg width="1971" height="351" viewBox="0 0 1971 351" fill="none" xmlns="http://www.w3.org/2000/svg">
<path d="M280 15.6504L240.211 55.4404H40V310.44H293V199.326L333 159.326V350.44H0V15.4404H280V15.6504Z" fill="#1B62A5"/>
<path d="M182.916 200.93L167.389 216.457L146.899 195.968L137 205.867L167.405 236.272L177.305 226.373L177.288 226.356L192.815 210.829L209.316 227.331L166.891 269.757L70 172.867L87 155.867L117.405 186.272L127.305 176.373L96.8994 145.968L112.427 130.44L182.916 200.93Z" fill="#1B62A5"/>
<path fill-rule="evenodd" clip-rule="evenodd" d="M367.868 15.9775L334.703 49.1426L344.603 59.042L377.768 25.877L394.316 42.4268L209.36 227.383L192.812 210.834L202.305 201.34L192.405 191.44L182.912 200.935L166.934 184.956L351.891 0L367.868 15.9775ZM215.627 167.219L225.526 177.118L264.418 138.228L254.519 128.328L215.627 167.219ZM275.627 107.219L285.526 117.118L324.418 78.2275L314.519 68.3281L275.627 107.219Z" fill="#1B62A5"/>
<path d="M447.59 172.04C447.59 156.093 451.04 141.91 457.94 129.49C464.84 116.917 474.423 107.18 486.69 100.28C499.11 93.2267 513.14 89.7 528.78 89.7C547.947 89.7 564.353 94.76 578 104.88C591.647 115 600.77 128.8 605.37 146.28H562.13C558.91 139.533 554.31 134.397 548.33 130.87C542.503 127.343 535.833 125.58 528.32 125.58C516.207 125.58 506.393 129.797 498.88 138.23C491.367 146.663 487.61 157.933 487.61 172.04C487.61 186.147 491.367 197.417 498.88 205.85C506.393 214.283 516.207 218.5 528.32 218.5C535.833 218.5 542.503 216.737 548.33 213.21C554.31 209.683 558.91 204.547 562.13 197.8H605.37C600.77 215.28 591.647 229.08 578 239.2C564.353 249.167 547.947 254.15 528.78 254.15C513.14 254.15 499.11 250.7 486.69 243.8C474.423 236.747 464.84 227.01 457.94 214.59C451.04 202.17 447.59 187.987 447.59 172.04Z" fill="#1B62A5"/>
<path d="M687.875 254.84C675.302 254.84 663.955 252.157 653.835 246.79C643.869 241.423 635.972 233.757 630.145 223.79C624.472 213.823 621.635 202.17 621.635 188.83C621.635 175.643 624.549 164.067 630.375 154.1C636.202 143.98 644.175 136.237 654.295 130.87C664.415 125.503 675.762 122.82 688.335 122.82C700.909 122.82 712.255 125.503 722.375 130.87C732.495 136.237 740.469 143.98 746.295 154.1C752.122 164.067 755.035 175.643 755.035 188.83C755.035 202.017 752.045 213.67 746.065 223.79C740.239 233.757 732.189 241.423 721.915 246.79C711.795 252.157 700.449 254.84 687.875 254.84ZM687.875 220.8C695.389 220.8 701.752 218.04 706.965 212.52C712.332 207 715.015 199.103 715.015 188.83C715.015 178.557 712.409 170.66 707.195 165.14C702.135 159.62 695.849 156.86 688.335 156.86C680.669 156.86 674.305 159.62 669.245 165.14C664.185 170.507 661.655 178.403 661.655 188.83C661.655 199.103 664.109 207 669.015 212.52C674.075 218.04 680.362 220.8 687.875 220.8Z" fill="#1B62A5"/>
<path d="M854.101 123.28C869.127 123.28 881.087 128.187 889.981 138C899.027 147.66 903.551 161 903.551 178.02V253H864.451V183.31C864.451 174.723 862.227 168.053 857.781 163.3C853.334 158.547 847.354 156.17 839.841 156.17C832.327 156.17 826.347 158.547 821.901 163.3C817.454 168.053 815.231 174.723 815.231 183.31V253H775.901V124.66H815.231V141.68C819.217 136.007 824.584 131.56 831.331 128.34C838.077 124.967 845.667 123.28 854.101 123.28Z" fill="#1B62A5"/>
<path d="M1002.41 219.65V253H982.401C968.141 253 957.024 249.55 949.051 242.65C941.078 235.597 937.091 224.173 937.091 208.38V157.32H921.451V124.66H937.091V93.38H976.421V124.66H1002.18V157.32H976.421V208.84C976.421 212.673 977.341 215.433 979.181 217.12C981.021 218.807 984.088 219.65 988.381 219.65H1002.41Z" fill="#1B62A5"/>
<path d="M1063.65 146.05C1068.25 138.997 1074 133.477 1080.9 129.49C1087.8 125.35 1095.47 123.28 1103.9 123.28V164.91H1093.09C1083.28 164.91 1075.92 167.057 1071.01 171.35C1066.1 175.49 1063.65 182.85 1063.65 193.43V253H1024.32V124.66H1063.65V146.05Z" fill="#1B62A5"/>
<path d="M1181.12 254.84C1168.54 254.84 1157.2 252.157 1147.08 246.79C1137.11 241.423 1129.21 233.757 1123.39 223.79C1117.71 213.823 1114.88 202.17 1114.88 188.83C1114.88 175.643 1117.79 164.067 1123.62 154.1C1129.44 143.98 1137.42 136.237 1147.54 130.87C1157.66 125.503 1169 122.82 1181.58 122.82C1194.15 122.82 1205.5 125.503 1215.62 130.87C1225.74 136.237 1233.71 143.98 1239.54 154.1C1245.36 164.067 1248.28 175.643 1248.28 188.83C1248.28 202.017 1245.29 213.67 1239.31 223.79C1233.48 233.757 1225.43 241.423 1215.16 246.79C1205.04 252.157 1193.69 254.84 1181.12 254.84ZM1181.12 220.8C1188.63 220.8 1194.99 218.04 1200.21 212.52C1205.57 207 1208.26 199.103 1208.26 188.83C1208.26 178.557 1205.65 170.66 1200.44 165.14C1195.38 159.62 1189.09 156.86 1181.58 156.86C1173.91 156.86 1167.55 159.62 1162.49 165.14C1157.43 170.507 1154.9 178.403 1154.9 188.83C1154.9 199.103 1157.35 207 1162.26 212.52C1167.32 218.04 1173.6 220.8 1181.12 220.8Z" fill="#1B62A5"/>
<path d="M1308.47 82.8V253H1269.14V82.8H1308.47Z" fill="#1B62A5"/>
<path d="M1457.95 186.76C1457.95 190.44 1457.72 194.273 1457.26 198.26H1368.25C1368.87 206.233 1371.4 212.367 1375.84 216.66C1380.44 220.8 1386.04 222.87 1392.63 222.87C1402.45 222.87 1409.27 218.73 1413.1 210.45H1454.96C1452.82 218.883 1448.91 226.473 1443.23 233.22C1437.71 239.967 1430.74 245.257 1422.3 249.09C1413.87 252.923 1404.44 254.84 1394.01 254.84C1381.44 254.84 1370.25 252.157 1360.43 246.79C1350.62 241.423 1342.95 233.757 1337.43 223.79C1331.91 213.823 1329.15 202.17 1329.15 188.83C1329.15 175.49 1331.84 163.837 1337.2 153.87C1342.72 143.903 1350.39 136.237 1360.2 130.87C1370.02 125.503 1381.29 122.82 1394.01 122.82C1406.43 122.82 1417.47 125.427 1427.13 130.64C1436.79 135.853 1444.31 143.29 1449.67 152.95C1455.19 162.61 1457.95 173.88 1457.95 186.76ZM1417.7 176.41C1417.7 169.663 1415.4 164.297 1410.8 160.31C1406.2 156.323 1400.45 154.33 1393.55 154.33C1386.96 154.33 1381.36 156.247 1376.76 160.08C1372.32 163.913 1369.56 169.357 1368.48 176.41H1417.7Z" fill="#1B62A5"/>
<path d="M1523.07 172.73C1523.07 157.09 1526.6 143.06 1533.65 130.64C1540.71 118.067 1550.29 108.253 1562.4 101.2C1574.67 94.1467 1588.24 90.62 1603.11 90.62C1620.59 90.62 1635.85 94.8367 1648.88 103.27C1661.92 111.703 1671.42 123.663 1677.4 139.15H1652.33C1647.89 129.49 1641.45 122.053 1633.01 116.84C1624.73 111.627 1614.77 109.02 1603.11 109.02C1591.92 109.02 1581.88 111.627 1572.98 116.84C1564.09 122.053 1557.11 129.49 1552.05 139.15C1546.99 148.657 1544.46 159.85 1544.46 172.73C1544.46 185.457 1546.99 196.65 1552.05 206.31C1557.11 215.817 1564.09 223.177 1572.98 228.39C1581.88 233.603 1591.92 236.21 1603.11 236.21C1614.77 236.21 1624.73 233.68 1633.01 228.62C1641.45 223.407 1647.89 215.97 1652.33 206.31H1677.4C1671.42 221.643 1661.92 233.527 1648.88 241.96C1635.85 250.24 1620.59 254.38 1603.11 254.38C1588.24 254.38 1574.67 250.93 1562.4 244.03C1550.29 236.977 1540.71 227.24 1533.65 214.82C1526.6 202.4 1523.07 188.37 1523.07 172.73Z" fill="#1B62A5"/>
<path d="M1799.18 92.69V109.71H1729.49V163.76H1786.07V180.78H1729.49V253H1708.56V92.69H1799.18Z" fill="#1B62A5"/>
<path d="M1816.64 172.73C1816.64 157.09 1820.16 143.06 1827.22 130.64C1834.27 118.067 1843.85 108.253 1855.97 101.2C1868.23 94.1467 1881.8 90.62 1896.68 90.62C1914.16 90.62 1929.41 94.8367 1942.45 103.27C1955.48 111.703 1964.99 123.663 1970.97 139.15H1945.9C1941.45 129.49 1935.01 122.053 1926.58 116.84C1918.3 111.627 1908.33 109.02 1896.68 109.02C1885.48 109.02 1875.44 111.627 1866.55 116.84C1857.65 122.053 1850.68 129.49 1845.62 139.15C1840.56 148.657 1838.03 159.85 1838.03 172.73C1838.03 185.457 1840.56 196.65 1845.62 206.31C1850.68 215.817 1857.65 223.177 1866.55 228.39C1875.44 233.603 1885.48 236.21 1896.68 236.21C1908.33 236.21 1918.3 233.68 1926.58 228.62C1935.01 223.407 1941.45 215.97 1945.9 206.31H1970.97C1964.99 221.643 1955.48 233.527 1942.45 241.96C1929.41 250.24 1914.16 254.38 1896.68 254.38C1881.8 254.38 1868.23 250.93 1855.97 244.03C1843.85 236.977 1834.27 227.24 1827.22 214.82C1820.16 202.4 1816.64 188.37 1816.64 172.73Z" fill="#1B62A5"/>
</svg>
