<svg width="395" height="351" viewBox="0 0 395 351" fill="none" xmlns="http://www.w3.org/2000/svg">
<path d="M280 15.6504L240.211 55.4404H40V310.44H293V199.326L333 159.326V350.44H0V15.4404H280V15.6504Z" fill="white"/>
<path d="M182.916 200.93L167.389 216.457L146.899 195.968L137 205.867L167.405 236.272L177.305 226.373L177.288 226.356L192.815 210.829L209.316 227.331L166.891 269.757L70 172.867L87 155.867L117.405 186.272L127.305 176.373L96.8994 145.968L112.427 130.44L182.916 200.93Z" fill="white"/>
<path fill-rule="evenodd" clip-rule="evenodd" d="M367.868 15.9775L334.703 49.1426L344.603 59.042L377.768 25.877L394.316 42.4268L209.36 227.383L192.812 210.834L202.305 201.34L192.405 191.44L182.912 200.935L166.934 184.956L351.891 0L367.868 15.9775ZM215.627 167.219L225.526 177.118L264.418 138.228L254.519 128.328L215.627 167.219ZM275.627 107.219L285.526 117.118L324.418 78.2275L314.519 68.3281L275.627 107.219Z" fill="white"/>
</svg>
